<?xml version="1.0" encoding="UTF-8"?>
<svg width="200px" height="200px" viewBox="0 0 200 200" version="1.1" xmlns="http://www.w3.org/2000/svg" xmlns:xlink="http://www.w3.org/1999/xlink">
    <!-- Generator: Sketch 53.2 (72643) - https://sketchapp.com -->
    <title>030-climber</title>
    <desc>Created with Sketch.</desc>
    <g id="Page-1" stroke="none" stroke-width="1" fill="none" fill-rule="evenodd">
        <g id="030-climber" fill="#4A7CB2" fill-rule="nonzero">
            <path d="M196.666667,0 L3.33333333,0 C1.49238417,0 0,1.49238417 0,3.33333333 L0,16.6666667 C0,18.5076158 1.49238417,20 3.33333333,20 L6.66666667,20 L6.66666667,196.666667 C6.66666667,198.507616 8.15905083,200 10,200 L23.3333333,200 C25.1742825,200 26.6666667,198.507616 26.6666667,196.666667 L26.6666667,183.333333 L173.333333,183.333333 L173.333333,196.666667 C173.333333,198.507616 174.825718,200 176.666667,200 L190,200 C191.840949,200 193.333333,198.507616 193.333333,196.666667 L193.333333,20 L196.666667,20 C198.507616,20 200,18.5076158 200,16.6666667 L200,3.33333333 C200,1.49238417 198.507616,0 196.666667,0 Z M20,193.333333 L13.3333333,193.333333 L13.3333333,20 L20,20 L20,193.333333 Z M56.6666667,176.666667 L26.6666667,176.666667 L26.6666667,156.666667 L56.6666667,156.666667 L56.6666667,176.666667 Z M56.6666667,150 L26.6666667,150 L26.6666667,130 L56.6666667,130 L56.6666667,150 Z M56.6666667,123.333333 L26.6666667,123.333333 L26.6666667,103.333333 L56.6666667,103.333333 L56.6666667,123.333333 Z M56.6666667,96.6666667 L26.6666667,96.6666667 L26.6666667,76.6666667 L56.6666667,76.6666667 L56.6666667,96.6666667 Z M61.38,20 L71.9533333,20 L26.6666667,65.2866667 L26.6666667,54.7133333 L61.38,20 Z M26.6666667,45.2866667 L26.6666667,20 L51.9533333,20 L26.6666667,45.2866667 Z M56.6666667,70 L31.38,70 L51.38,50 L56.6666667,50 L56.6666667,70 Z M96.6666667,176.666667 L63.3333333,176.666667 L63.3333333,156.666667 L96.6666667,156.666667 L96.6666667,176.666667 Z M96.6666667,150 L63.3333333,150 L63.3333333,130 L96.6666667,130 L96.6666667,150 Z M96.6666667,123.333333 L63.3333333,123.333333 L63.3333333,103.333333 L96.6666667,103.333333 L96.6666667,123.333333 Z M96.6666667,96.6666667 L63.3333333,96.6666667 L63.3333333,76.6666667 L96.6666667,76.6666667 L96.6666667,96.6666667 Z M96.6666667,70 L63.3333333,70 L63.3333333,50 L96.6666667,50 L96.6666667,70 Z M96.6666667,43.3333333 L58.0466667,43.3333333 L81.38,20 L96.6666667,20 L96.6666667,43.3333333 Z M136.666667,176.666667 L103.333333,176.666667 L103.333333,156.666667 L136.666667,156.666667 L136.666667,176.666667 Z M136.666667,150 L103.333333,150 L103.333333,130 L136.666667,130 L136.666667,150 Z M136.666667,123.333333 L103.333333,123.333333 L103.333333,103.333333 L136.666667,103.333333 L136.666667,123.333333 Z M136.666667,96.6666667 L103.333333,96.6666667 L103.333333,76.6666667 L136.666667,76.6666667 L136.666667,96.6666667 Z M136.666667,70 L103.333333,70 L103.333333,50 L136.666667,50 L136.666667,70 Z M103.333333,43.3333333 L103.333333,20 L118.62,20 L141.953333,43.3333333 L103.333333,43.3333333 Z M173.333333,176.666667 L143.333333,176.666667 L143.333333,156.666667 L173.333333,156.666667 L173.333333,176.666667 Z M173.333333,150 L143.333333,150 L143.333333,130 L173.333333,130 L173.333333,150 Z M173.333333,123.333333 L143.333333,123.333333 L143.333333,103.333333 L173.333333,103.333333 L173.333333,123.333333 Z M173.333333,96.6666667 L143.333333,96.6666667 L143.333333,76.6666667 L173.333333,76.6666667 L173.333333,96.6666667 Z M143.333333,70 L143.333333,50 L148.62,50 L168.62,70 L143.333333,70 Z M173.333333,65.2866667 L128.046667,20 L138.62,20 L173.333333,54.7133333 L173.333333,65.2866667 Z M173.333333,45.2866667 L148.046667,20 L173.333333,20 L173.333333,45.2866667 Z M186.666667,193.333333 L180,193.333333 L180,20 L186.666667,20 L186.666667,193.333333 Z M193.333333,13.3333333 L6.66666667,13.3333333 L6.66666667,6.66666667 L193.333333,6.66666667 L193.333333,13.3333333 Z" id="Shape"></path>
        </g>
    </g>
</svg>