<?xml version="1.0" encoding="UTF-8"?>
<svg width="75px" height="50px" viewBox="0 0 75 50" version="1.1" xmlns="http://www.w3.org/2000/svg" xmlns:xlink="http://www.w3.org/1999/xlink">
    <!-- Generator: Sketch 53.2 (72643) - https://sketchapp.com -->
    <title>box</title>
    <desc>Created with Sketch.</desc>
    <g id="design" stroke="none" stroke-width="1" fill="none" fill-rule="evenodd">
        <g id="item-v2" transform="translate(-120.000000, -297.000000)" fill="#FFFFFF" fill-rule="nonzero">
            <g id="recomendations" transform="translate(0.000000, 297.000000)">
                <g id="Group-2">
                    <g id="box" transform="translate(120.000000, -7.000000)">
                        <path d="M74.3326562,17.6517188 L38.0095313,0.11640625 C37.6875,-0.03890625 37.3125,-0.03890625 36.990625,0.11640625 L0.66734375,17.6517188 C0.26234375,17.8471875 0.005,18.2573438 0.005,18.7070313 L0.005,61.2928125 C0.005,61.7425 0.26234375,62.1526563 0.66734375,62.348125 L36.9904687,79.8834375 C37.1514063,79.9610938 37.3257812,80 37.5,80 C37.6742188,80 37.8484375,79.9610938 38.0095313,79.8834375 L74.3326562,62.348125 C74.7376563,62.1526563 74.995,61.7425 74.995,61.2928125 L74.995,18.7071875 C74.995,18.2571875 74.7375,17.8473438 74.3326562,17.6517188 Z M37.5,2.473125 L71.1276563,18.7070313 L61.3796875,23.4129688 C61.3179687,23.3659375 61.2528125,23.3225 61.18125,23.2879688 L27.7820313,7.16453125 L37.5,2.473125 Z M25.1354687,8.48953125 L58.7142187,24.6998437 L51.836875,28.02 L18.2720313,11.81625 L25.1354687,8.48953125 Z M59.4998438,26.9229687 L59.4998438,39.1957812 L53.0759375,42.2970313 L53.0759375,30.0242188 L59.4998438,26.9229687 Z M72.65125,60.5575 L38.671875,76.9609375 L38.671875,36.9778125 L46.7770313,33.065 C47.3598438,32.7835938 47.6042188,32.083125 47.3228125,31.5001563 C47.0414063,30.9175 46.3409375,30.6728125 45.7579688,30.954375 L37.5,34.9410938 L34.250625,33.3723437 C33.6676563,33.090625 32.9671875,33.3353125 32.6857813,33.918125 C32.404375,34.5009375 32.64875,35.2015625 33.2315625,35.4829687 L36.328125,36.9778125 L36.328125,76.9609375 L2.34875,60.5571875 L2.34875,20.5740625 L28.22375,33.0654688 C28.3879687,33.1448438 28.5615625,33.1823438 28.7323438,33.1823438 C29.1679688,33.1823438 29.5864063,32.9382812 29.7884375,32.5196875 C30.0698438,31.936875 29.8254688,31.23625 29.2426563,30.9548438 L3.87234375,18.7070313 L15.51375,13.0870313 L50.7159375,30.08125 C50.7210938,30.0884375 50.726875,30.0948438 50.7321875,30.101875 L50.7321875,44.1642188 C50.7321875,44.5675 50.9395313,44.9423438 51.2810937,45.156875 C51.4707812,45.2759375 51.6871875,45.3360938 51.9042188,45.3360938 C52.0779688,45.3360938 52.2521875,45.2975 52.4135938,45.2195313 L61.18125,40.986875 C61.58625,40.7914063 61.8435937,40.3814063 61.8435937,39.9315625 L61.8435937,25.7917188 L72.65125,20.5742188 L72.65125,60.5575 L72.65125,60.5575 Z" id="Shape"></path>
                        <path d="M12.0196875,56.0123438 L6.68921875,53.4390625 C6.10609375,53.1573438 5.40578125,53.4020313 5.124375,53.9848438 C4.84296875,54.5676563 5.08734375,55.2682813 5.67015625,55.5496875 L11.000625,58.1229688 C11.1648437,58.2023438 11.3384375,58.2398438 11.5092187,58.2398438 C11.9448437,58.2398438 12.3632812,57.9957813 12.5653125,57.5771875 C12.846875,56.9942188 12.6025,56.2939063 12.0196875,56.0123438 Z" id="Path"></path>
                        <path d="M16.9254687,52.8190625 L6.6965625,47.8809375 C6.11359375,47.5995312 5.413125,47.8439062 5.13171875,48.426875 C4.85046875,49.0096875 5.09484375,49.7103125 5.67765625,49.9917187 L15.9065625,54.9298437 C16.0707812,55.0090625 16.244375,55.0467187 16.4151562,55.0467187 C16.8507812,55.0467187 17.2692187,54.8026562 17.47125,54.3840625 C17.7526562,53.8009375 17.5082812,53.1003125 16.9254687,52.8190625 Z" id="Path"></path>
                    </g>
                </g>
            </g>
        </g>
    </g>
</svg>