<?xml version="1.0" encoding="UTF-8"?>
<svg width="77px" height="50px" viewBox="0 0 77 50" version="1.1" xmlns="http://www.w3.org/2000/svg" xmlns:xlink="http://www.w3.org/1999/xlink">
    <!-- Generator: Sketch 53.2 (72643) - https://sketchapp.com -->
    <title></title>
    <desc>Created with Sketch.</desc>
    <g id="design" stroke="none" stroke-width="1" fill="none" fill-rule="evenodd">
        <g id="item-v2" transform="translate(-119.000000, -819.000000)" fill="#FFFFFF" stroke="#4A7CB2" stroke-width="1.5">
            <g id="photos" transform="translate(0.000000, 819.000000)">
                <g id="title---sports">
                    <path d="M188.75,-4 C190.48612,-4 191.961799,-3.39236719 193.177083,-2.17708333 C194.392367,-0.961799479 195,0.513880208 195,2.25 L195,39.75 C195,41.4861198 194.392367,42.9617995 193.177083,44.1770833 C191.961799,45.3923672 190.48612,46 188.75,46 L186.666667,46 L186.666667,48.0833333 C186.666667,49.8194531 186.059034,51.2951328 184.84375,52.5104167 C183.628466,53.7257005 182.152786,54.3333333 180.416667,54.3333333 L126.25,54.3333333 C124.51388,54.3333333 123.038201,53.7257005 121.822917,52.5104167 C120.607633,51.2951328 120,49.8194531 120,48.0833333 L120,10.5833333 C120,8.84721354 120.607633,7.37153385 121.822917,6.15625 C123.038201,4.94096615 124.51388,4.33333333 126.25,4.33333333 L128.333333,4.33333333 L128.333333,2.25 C128.333333,0.513880208 128.940966,-0.961799479 130.15625,-2.17708333 C131.371534,-3.39236719 132.847214,-4 134.583333,-4 L188.75,-4 Z M182.5,48.0833333 L182.5,46 L134.583333,46 C132.847214,46 131.371534,45.3923672 130.15625,44.1770833 C128.940966,42.9617995 128.333333,41.4861198 128.333333,39.75 L128.333333,8.5 L126.25,8.5 C125.642358,8.5 125.143231,8.69531055 124.752604,9.0859375 C124.361977,9.47656445 124.166667,9.97569141 124.166667,10.5833333 L124.166667,48.0833333 C124.166667,48.6909753 124.361977,49.1901022 124.752604,49.5807292 C125.143231,49.9713561 125.642358,50.1666667 126.25,50.1666667 L180.416667,50.1666667 C181.024309,50.1666667 181.523436,49.9713561 181.914062,49.5807292 C182.304689,49.1901022 182.5,48.6909753 182.5,48.0833333 Z M190.833333,39.75 L190.833333,2.25 C190.833333,1.64235807 190.638023,1.14323112 190.247396,0.752604167 C189.856769,0.361977214 189.357642,0.166666667 188.75,0.166666667 L134.583333,0.166666667 C133.975691,0.166666667 133.476564,0.361977214 133.085938,0.752604167 C132.695311,1.14323112 132.5,1.64235807 132.5,2.25 L132.5,39.75 C132.5,40.3576419 132.695311,40.8567689 133.085938,41.2473958 C133.476564,41.6380228 133.975691,41.8333333 134.583333,41.8333333 L188.75,41.8333333 C189.357642,41.8333333 189.856769,41.6380228 190.247396,41.2473958 C190.638023,40.8567689 190.833333,40.3576419 190.833333,39.75 Z M142.916667,17.875 C140.920129,17.875 139.205736,17.1588613 137.773438,15.7265625 C136.341139,14.2942637 135.625,12.5798711 135.625,10.5833333 C135.625,8.58679557 136.341139,6.87240299 137.773438,5.44010417 C139.205736,4.00780534 140.920129,3.29166667 142.916667,3.29166667 C144.913204,3.29166667 146.627597,4.00780534 148.059896,5.44010417 C149.492195,6.87240299 150.208333,8.58679557 150.208333,10.5833333 C150.208333,12.5798711 149.492195,14.2942637 148.059896,15.7265625 C146.627597,17.1588613 144.913204,17.875 142.916667,17.875 Z M142.916667,7.45833333 C142.048607,7.45833333 141.310767,7.76214974 140.703125,8.36979167 C140.095483,8.97743359 139.791667,9.71527344 139.791667,10.5833333 C139.791667,11.4513932 140.095483,12.1892331 140.703125,12.796875 C141.310767,13.4045169 142.048607,13.7083333 142.916667,13.7083333 C143.784727,13.7083333 144.522566,13.4045169 145.130208,12.796875 C145.73785,12.1892331 146.041667,11.4513932 146.041667,10.5833333 C146.041667,9.71527344 145.73785,8.97743359 145.130208,8.36979167 C144.522566,7.76214974 143.784727,7.45833333 142.916667,7.45833333 Z M174.296875,10.453125 L185.755208,21.9114583 C186.36285,22.5191003 186.666667,23.2569401 186.666667,24.125 L186.666667,36.1041667 C186.666667,36.5381966 186.514758,36.9071165 186.210938,37.2109375 C185.907117,37.5147585 185.538197,37.6666667 185.104167,37.6666667 L138.229167,37.6666667 C137.795137,37.6666667 137.426217,37.5147585 137.122396,37.2109375 C136.818575,36.9071165 136.666667,36.5381966 136.666667,36.1041667 L136.666667,32.4583333 C136.666667,31.5902734 136.970483,30.8524336 137.578125,30.2447917 L149.036458,18.7864583 C149.6441,18.1788164 150.38194,17.875 151.25,17.875 C152.11806,17.875 152.8559,18.1788164 153.463542,18.7864583 L157.5,22.8229167 L169.869792,10.453125 C170.477434,9.84548307 171.215273,9.54166667 172.083333,9.54166667 C172.951393,9.54166667 173.689233,9.84548307 174.296875,10.453125 Z M182.5,33.5 L182.5,24.515625 L172.083333,14.0989583 L157.5,28.6822917 L151.25,22.4322917 L140.833333,32.8489583 L140.833333,33.5 L182.5,33.5 Z" id=""></path>
                </g>
            </g>
        </g>
    </g>
</svg>