<?xml version="1.0" encoding="UTF-8"?>
<svg width="75px" height="50px" viewBox="0 0 75 50" version="1.1" xmlns="http://www.w3.org/2000/svg" xmlns:xlink="http://www.w3.org/1999/xlink">
    <!-- Generator: Sketch 53.1 (72631) - https://sketchapp.com -->
    <title>Combined Shape</title>
    <desc>Created with Sketch.</desc>
    <g id="design" stroke="none" stroke-width="1" fill="none" fill-rule="evenodd">
        <g id="catalogue-v2" transform="translate(-120.000000, -388.000000)" fill="#FFFFFF">
            <g id="title---sports" transform="translate(0.000000, 388.000000)">
                <path d="M178.259118,49.5407379 C178.764419,48.4538881 178.689734,47.1857925 178.060373,46.1658162 L180.77281,40.7396921 L187.977643,40.7396921 L188.53388,41.8521663 C185.98722,45.4166148 182.397147,48.1029587 178.259118,49.5407379 Z M171.569274,52.0631793 C166.217054,56.0598053 159.719393,58.2253801 153.039704,58.239286 L149.462287,58.239286 C142.782442,58.2253801 136.284936,56.0598053 130.932717,52.0631793 L126.91156,49.0469993 C126.359229,48.6327902 126.247357,47.8493709 126.66141,47.29704 C126.707659,47.2353226 126.759689,47.1779802 126.816562,47.1257939 L130.37648,43.8571198 C132.921264,41.5377986 135.836509,39.6609672 139.00128,38.3047486 C139.191119,38.2692807 139.370021,38.1900638 139.523767,38.073504 C150.591636,33.5020476 163.305559,35.7576203 172.125511,43.8571198 L175.690428,47.1257939 C176.199166,47.5923456 176.233384,48.3831085 175.766676,48.8918467 C175.71449,48.9487204 175.657148,49.0005942 175.59543,49.0469993 L171.569274,52.0631793 Z M130.36898,30.8911707 L140.524994,20.7401563 C143.746013,24.3289792 145.792372,28.8171563 146.389858,33.6023578 C143.722889,33.9929737 141.113418,34.7065509 138.618788,35.7273085 C135.570109,34.6896763 132.763612,33.044402 130.36898,30.8911707 Z M122.534162,12.7990906 L124.551615,12.9428372 C129.824618,13.3112662 134.822783,15.432467 138.751285,18.9689474 L128.615271,29.1062121 C124.590208,24.6403783 122.41604,18.8098886 122.534162,12.7990906 Z M162.115743,-4.39301042 L151.990978,5.7317546 C148.451685,1.80747068 146.326891,-3.18788214 145.954868,-8.45916605 L145.809872,-10.4766192 C151.82067,-10.594429 157.651003,-8.41916698 162.115743,-4.39301042 Z M186.286432,14.4903013 L186.250183,14.4903013 C185.692071,14.4906138 185.201926,14.8609177 185.048961,15.3977803 L182.706515,23.59509 L178.690358,25.447547 L172.500502,21.3213928 L172.500502,16.3915072 L179.46784,11.5166203 C179.911111,11.2031901 180.101576,10.6396095 179.93908,10.1216527 C182.302618,11.1802219 184.453662,12.6605 186.286432,14.4903013 Z M188.396383,16.9902433 C190.658987,20.0720468 192.041455,23.7107123 192.39629,27.517499 L191.336315,28.0474867 L185.198957,23.9563316 L187.192661,16.9902433 L188.396383,16.9902433 Z M150.364766,33.2536159 C150.264768,32.6936289 150.16977,32.128642 150.114772,31.5636551 L150.691008,31.8523984 C151.172247,32.0925491 151.753327,31.9978638 152.133475,31.6174038 L157.800843,25.9512853 L162.716979,27.9174897 L165.048175,36.0760504 C165.070831,36.1393302 165.099268,36.2004225 165.133173,36.2585461 C160.776399,34.2664049 156.041509,33.2367413 151.250995,33.2398662 C150.956002,33.2398662 150.662259,33.2523659 150.367266,33.2598657 L150.364766,33.2536159 Z M146.248611,15.0040394 L150.059773,18.815201 C148.642306,21.6198234 147.800294,24.6799086 147.58358,27.8149921 C146.427201,24.5419431 144.627712,21.5334191 142.291203,18.9664475 L146.248611,15.0040394 Z M155.3734,11.8791119 C153.993432,13.1161145 152.762366,14.5096759 151.704735,16.0315156 C151.570675,16.1410443 151.460834,16.2772911 151.382242,16.4315063 C151.367711,16.4761927 151.355524,16.5216604 151.345993,16.5677531 L148.01857,13.2403303 L151.989728,9.26917251 C153.045954,10.2293065 154.178427,11.102255 155.3759,11.8791119 L155.3734,11.8791119 Z M153.010954,18.642705 L154.010931,19.1426934 L156.028384,24.1850763 L151.001001,29.2187095 L150.036024,28.7362207 C150.158677,25.1742721 151.182247,21.7016965 153.010954,18.642705 Z M163.604459,25.5850438 L158.462078,23.5275916 L156.162131,17.777725 C156.048384,17.4928879 155.834014,17.2597683 155.559645,17.1227402 L154.434671,16.5577534 C156.572903,13.7748492 159.364401,11.562088 162.561983,10.1154029 C162.399487,10.6333596 162.589951,11.1969403 163.033222,11.5103705 L170.00056,16.3915072 L170.00056,21.3213928 L163.604459,25.5850438 Z M177.167894,27.4437507 C177.177894,27.4700001 177.175394,27.4974995 177.187893,27.5237489 C177.210862,27.5670291 177.236798,27.6087469 177.265392,27.648746 L175.307937,34.4898372 L167.193125,34.4898372 L165.203172,27.5237489 L171.250531,23.4900925 L177.167894,27.4437507 Z M176.941649,9.04417773 L177.266642,10.0079054 L171.250531,14.2140577 L165.234421,10.0016555 L165.559413,9.03792787 C169.279014,7.97451505 173.222048,7.97451505 176.941649,9.03792787 L176.941649,9.04417773 Z M163.898202,-2.63430124 C166.116744,-0.176233285 167.79608,2.71916827 168.828087,5.8655015 C164.715839,6.29064788 160.787493,7.78951935 157.437102,10.2116506 C156.127132,9.42791882 154.895754,8.51997114 153.759687,7.50046355 L163.898202,-2.63430124 Z M143.461176,-8.28167017 C143.873823,-2.40930646 146.255018,3.15243946 150.219769,7.50421347 L146.251111,11.4728714 L130.38648,-4.39301042 C133.987958,-7.64231001 138.50301,-9.70288719 143.317429,-10.2941235 L143.461176,-8.28167017 Z M128.619021,-2.62555144 L144.483652,13.2403303 L140.524994,17.1989885 C136.169158,13.235643 130.603974,10.8575731 124.729111,10.4491451 L122.715408,10.3053985 C123.307581,5.49082269 125.36894,0.975614982 128.619021,-2.62555144 Z M176.230416,44.2396109 L173.809222,42.0146625 C171.643022,40.0309586 169.224641,38.3413103 166.616889,36.9897792 L175.732927,36.9897792 L178.482863,39.7397153 L176.230416,44.2396109 Z M189.875099,38.9309841 C189.662291,38.5050565 189.226208,38.237094 188.750125,38.2397502 L180.517816,38.2397502 L177.654133,35.3760666 L179.857831,27.6624956 L183.638994,25.9187861 L190.556333,30.5299291 C190.928824,30.7780483 191.405532,30.8080476 191.806304,30.6086773 L192.460039,30.2811849 C192.35051,33.4423615 191.534279,36.5388521 190.071344,39.3434745 L189.875099,38.9309841 Z M194.917482,27.8649909 C194.988105,28.0765485 194.999667,28.3034183 194.951231,28.5212257 C194.963731,28.8449682 194.99998,29.1624608 194.99998,29.4899532 C195.015292,41.3587403 186.246902,51.4077258 174.485456,53.0006576 L173.070489,54.061883 C167.284842,58.3827202 160.260786,60.7242283 153.039704,60.739228 L149.462287,60.739228 C142.240423,60.7246971 135.21543,58.3831889 129.429002,54.061883 L125.409095,51.0469529 C125.223943,50.9078937 125.052072,50.752116 124.895669,50.581495 C123.496327,49.0546554 123.599762,46.682523 125.126602,45.2833367 L128.692769,42.0146625 C130.75194,40.1286126 133.03923,38.5081814 135.501361,37.1910245 C128.539804,34.065472 123.283519,28.0646738 121.102008,20.7521873 C116.958822,6.86329084 124.859108,-7.75465116 138.748004,-11.8979925 C152.636744,-16.0411776 167.254686,-8.14089219 171.398028,5.74800422 C183.812271,5.84300202 194.060314,15.4799659 194.917482,27.8649909 Z M162.500734,45.7395761 L161.250763,45.7395761 L161.250763,44.4896051 C161.250763,43.7991524 160.691089,43.2396341 160.000792,43.2396341 C159.310496,43.2396341 158.750821,43.7991524 158.750821,44.4896051 L158.750821,45.7395761 L156.250879,45.7395761 L156.250879,44.4896051 C156.250879,43.7991524 155.691205,43.2396341 155.000908,43.2396341 C154.310612,43.2396341 153.750937,43.7991524 153.750937,44.4896051 L153.750937,45.7395761 L151.250995,45.7395761 L151.250995,44.4896051 C151.250995,43.7991524 150.691321,43.2396341 150.001024,43.2396341 C149.310728,43.2396341 148.751053,43.7991524 148.751053,44.4896051 L148.751053,45.7395761 L146.251111,45.7395761 L146.251111,44.4896051 C146.251111,43.7991524 145.691437,43.2396341 145.00114,43.2396341 C144.310844,43.2396341 143.751169,43.7991524 143.751169,44.4896051 L143.751169,45.7395761 L141.251227,45.7395761 L141.251227,44.4896051 C141.251227,43.7991524 140.691553,43.2396341 140.001256,43.2396341 C139.31096,43.2396341 138.751285,43.7991524 138.751285,44.4896051 L138.751285,45.7395761 L137.501314,45.7395761 C136.811018,45.7395761 136.251343,46.2990944 136.251343,46.9895471 C136.251343,47.6798436 136.811018,48.2395181 137.501314,48.2395181 L138.751285,48.2395181 L138.751285,49.4894891 C138.751285,50.1797856 139.31096,50.7394601 140.001256,50.7394601 C140.691553,50.7394601 141.251227,50.1797856 141.251227,49.4894891 L141.251227,48.2395181 L143.751169,48.2395181 L143.751169,49.4894891 C143.751169,50.1797856 144.310844,50.7394601 145.00114,50.7394601 C145.691437,50.7394601 146.251111,50.1797856 146.251111,49.4894891 L146.251111,48.2395181 L148.751053,48.2395181 L148.751053,49.4894891 C148.751053,50.1797856 149.310728,50.7394601 150.001024,50.7394601 C150.691321,50.7394601 151.250995,50.1797856 151.250995,49.4894891 L151.250995,48.2395181 L153.750937,48.2395181 L153.750937,49.4894891 C153.750937,50.1797856 154.310612,50.7394601 155.000908,50.7394601 C155.691205,50.7394601 156.250879,50.1797856 156.250879,49.4894891 L156.250879,48.2395181 L158.750821,48.2395181 L158.750821,49.4894891 C158.750821,50.1797856 159.310496,50.7394601 160.000792,50.7394601 C160.691089,50.7394601 161.250763,50.1797856 161.250763,49.4894891 L161.250763,48.2395181 L162.500734,48.2395181 C163.191031,48.2395181 163.750705,47.6798436 163.750705,46.9895471 C163.750705,46.2990944 163.191031,45.7395761 162.500734,45.7395761 Z" id="Combined-Shape"></path>
            </g>
        </g>
    </g>
</svg>