<?xml version="1.0" encoding="UTF-8"?>
<svg width="75px" height="50px" viewBox="0 0 75 50" version="1.1" xmlns="http://www.w3.org/2000/svg" xmlns:xlink="http://www.w3.org/1999/xlink">
    <!-- Generator: Sketch 53.2 (72643) - https://sketchapp.com -->
    <title>Combined Shape</title>
    <desc>Created with Sketch.</desc>
    <g id="design" stroke="none" stroke-width="1" fill="none" fill-rule="evenodd">
        <g id="item-v2" transform="translate(-120.000000, -1237.000000)" fill="#FFFFFF">
            <g id="suppliers" transform="translate(0.000000, 1237.000000)">
                <g id="title---sports-copy">
                    <path d="M194.659313,41.2712081 C194.655797,41.2745772 194.652574,41.2782393 194.649059,41.2820479 C194.628112,41.3015302 194.6057,41.3195477 194.583141,41.3375651 C194.577575,41.3419596 194.572594,41.3469401 194.566882,41.3513346 C194.549011,41.3648111 194.529821,41.3769692 194.511071,41.3895668 C194.499646,41.3970375 194.488806,41.4055335 194.477087,41.4128577 C194.456433,41.4254553 194.434753,41.4364416 194.413074,41.4477208 C194.401941,41.4535801 194.391541,41.4601719 194.380261,41.4655918 C194.353748,41.4784823 194.326063,41.4894686 194.298084,41.5003084 C194.290906,41.5030916 194.284168,41.5066072 194.276844,41.5092439 L194.276698,41.5092439 C194.276551,41.5093904 194.276405,41.5093904 194.276405,41.5093904 L166.708047,51.534434 C166.684317,52.7962436 166.399114,54.050436 165.8498,55.228457 C164.816212,57.4447537 162.981798,59.1256528 160.683763,59.9620741 C159.673173,60.3298944 158.619956,60.516368 157.553263,60.516368 C153.719055,60.516368 150.261603,58.0947013 148.949696,54.4904727 C147.620357,50.8384905 148.771279,46.8799181 151.534838,44.4626459 L136.042295,1.89847115 L122.977863,6.61055512 C122.977424,6.6107016 122.976984,6.61099457 122.976545,6.61114105 C122.975959,6.61128754 122.975373,6.6115805 122.974787,6.61172699 L122.973615,6.61216644 C122.963947,6.61568204 122.954133,6.61831875 122.944319,6.6213949 C122.923518,6.62827963 122.902864,6.63545733 122.881917,6.64087722 C122.862288,6.64615063 122.842512,6.6499592 122.822737,6.65406074 C122.811311,6.65640448 122.799886,6.65948064 122.78846,6.66153141 C122.763558,6.66577943 122.738802,6.66856262 122.7139,6.67119932 C122.707455,6.67178526 122.701156,6.67310361 122.694711,6.67368954 C122.663363,6.67617977 122.632162,6.6776446 122.601108,6.6776446 C122.544858,6.6776446 122.489048,6.67339658 122.434263,6.66475405 C122.422398,6.66299624 122.410972,6.6588947 122.399253,6.65669745 C122.35648,6.64849437 122.314,6.6401448 122.272691,6.62710776 C122.260826,6.62329919 122.24984,6.61743985 122.238121,6.61333831 C122.197838,6.59927588 122.157555,6.58477401 122.119177,6.56602411 C122.107897,6.56045773 122.097643,6.55284059 122.086511,6.54698124 C122.049011,6.52720596 122.011511,6.50684474 121.976501,6.48267495 C121.96449,6.47447187 121.953943,6.46407153 121.942224,6.45513604 C121.909851,6.43081976 121.877186,6.40650349 121.847449,6.37852512 C121.834559,6.36636698 121.823866,6.35186511 121.811561,6.33912104 C121.785194,6.31187509 121.758241,6.28492211 121.734657,6.25460001 C121.721181,6.23746143 121.710634,6.21768614 121.698183,6.19966866 C121.678407,6.1708114 121.657753,6.14327248 121.640615,6.11236445 C121.628456,6.09053839 121.619814,6.06622212 121.609121,6.04337068 C121.595498,6.01392748 121.57997,5.98565614 121.568691,5.95460162 L120.065623,1.82522936 C120.06533,1.82449694 120.065184,1.82391101 120.065037,1.82317859 C120.064891,1.82288562 120.064744,1.82244617 120.064598,1.8221532 C120.058885,1.80618649 120.05493,1.78992682 120.049949,1.7739601 C120.043944,1.75462427 120.037059,1.73543492 120.032225,1.71595261 C120.028123,1.69939996 120.025633,1.68270083 120.022264,1.66614819 C120.018309,1.64666587 120.013621,1.62718355 120.010692,1.60770124 C120.008348,1.59129507 120.007469,1.57488891 120.005858,1.55862923 C120.003954,1.53900043 120.00117,1.51922515 120.000291,1.49959635 C119.999559,1.4830437 120.000438,1.46649106 120.000438,1.44993841 C120.000438,1.43060258 119.999706,1.41126675 120.000731,1.39193091 C120.00161,1.37537827 120.0041,1.35897211 120.005711,1.34256595 C120.007616,1.32366956 120.008641,1.3046267 120.011571,1.2858768 C120.014061,1.26961712 120.018016,1.25350393 120.021239,1.23739073 C120.024901,1.2189338 120.027977,1.2001839 120.032518,1.18201994 C120.036473,1.16649268 120.041746,1.15140487 120.046287,1.13617057 C120.051707,1.11771364 120.056688,1.09896374 120.063133,1.08079978 C120.068113,1.06644439 120.074559,1.0529679 120.080271,1.03875899 C120.087889,1.02015558 120.094773,1.00140568 120.103269,0.983241712 C120.109422,0.970204673 120.116746,0.957753568 120.123338,0.945009496 C120.132859,0.926552565 120.141941,0.907802666 120.152488,0.889931668 C120.159519,0.878066498 120.167722,0.866933745 120.175193,0.855215059 C120.186765,0.837197578 120.197898,0.819033613 120.210495,0.80174855 C120.217966,0.791348216 120.226609,0.781680299 120.234519,0.771719415 C120.248435,0.753994901 120.262058,0.73597742 120.276999,0.719131808 C120.285349,0.709756859 120.294577,0.701407294 120.30322,0.692178828 C120.31904,0.675626183 120.334567,0.658487604 120.351559,0.643106827 C120.360348,0.634757263 120.370162,0.627726051 120.379244,0.619669454 C120.397262,0.60399571 120.414986,0.588175483 120.434029,0.573673608 C120.442818,0.56722833 120.452486,0.561222503 120.461568,0.554923709 C120.482076,0.540421834 120.502291,0.525626992 120.52397,0.512589953 C120.533052,0.506877093 120.542867,0.502336102 120.552095,0.497062693 C120.574654,0.484172137 120.597212,0.470988615 120.620942,0.459562895 C120.630024,0.455168388 120.639692,0.451945749 120.648921,0.447844208 C120.673091,0.437004423 120.697114,0.426018154 120.722456,0.416789688 C120.723334,0.416496721 120.724067,0.416350238 120.724799,0.41605727 C120.725092,0.415764303 120.725385,0.415764303 120.725532,0.415764303 L134.820475,-4.66794852 C134.820915,-4.668095 134.821354,-4.66838797 134.821794,-4.66853445 C137.668263,-5.7041734 140.826449,-4.23157392 141.862381,-1.38554434 L157.728164,42.2051874 C158.582017,42.2217401 159.415655,42.3579698 160.20945,42.6005466 L147.43447,7.49927103 C147.333396,7.22373541 147.34658,6.92505538 147.471091,6.65845525 C147.595602,6.39331996 147.815327,6.19117261 148.090716,6.09156378 L157.710147,2.59016664 C157.715567,2.58811587 157.720694,2.58547917 157.726113,2.5834284 C157.729336,2.58225653 157.732559,2.58196356 157.735781,2.58079169 L163.223789,0.583195041 C163.226719,0.582023172 163.229355,0.580558337 163.232285,0.579532951 C163.233896,0.579093501 163.235654,0.578947017 163.237265,0.578214599 L172.867536,-2.92728408 C172.987652,-2.97122915 173.115093,-2.99320169 173.242534,-2.99320169 C173.299955,-2.99320169 173.356791,-2.9886607 173.412455,-2.97987168 C173.802247,-2.91834858 174.136816,-2.64896527 174.275243,-2.27089113 L176.279138,3.23528035 C176.485534,3.80495501 176.191248,4.43644575 175.622892,4.64284112 C175.501311,4.68839751 175.37387,4.71037005 175.246429,4.71037005 C174.786471,4.71037005 174.371922,4.41886772 174.21372,3.98674114 L172.585701,-0.485549196 L165.016016,2.26936759 L166.643741,6.74224386 C166.656485,6.77739992 166.667325,6.81270247 166.67626,6.84829798 C166.678165,6.85635458 166.67919,6.86397172 166.681094,6.87202832 C166.687686,6.90029965 166.693839,6.92901043 166.698087,6.95757473 C166.698233,6.95860012 166.698233,6.95977199 166.698379,6.96094385 C166.728995,7.17085483 166.698965,7.38574625 166.606974,7.58291316 C166.482463,7.84804845 166.262737,8.05019579 165.987348,8.14980463 L160.481177,10.1535536 C160.359595,10.19911 160.233619,10.2210825 160.104714,10.2210825 C159.644755,10.2210825 159.230353,9.92943371 159.073616,9.49730713 L157.445304,5.02457734 L149.874007,7.78008006 L155.635939,23.6083639 L164.237162,20.4780096 C164.237602,20.4780096 164.237895,20.4777167 164.238334,20.4775702 C164.238627,20.4774237 164.23892,20.4774237 164.239067,20.4774237 L178.347633,15.3425881 L175.716641,8.11625989 C175.5101,7.54790358 175.804532,6.91509449 176.374206,6.70855264 C176.494323,6.66460756 176.621763,6.64263502 176.749204,6.64263502 C177.209163,6.64263502 177.623711,6.93281901 177.781913,7.36494558 L180.786878,15.6219323 C180.787024,15.6223718 180.787464,15.6228112 180.78761,15.6233971 L188.429952,36.6215261 L192.022462,35.315039 C192.267529,35.225684 192.523729,35.2299321 192.752536,35.3083008 C192.756491,35.3094726 192.760592,35.3103515 192.764401,35.3118164 C192.780514,35.3175292 192.796042,35.3248534 192.811862,35.3312987 C192.828707,35.3381834 192.845846,35.3441892 192.862252,35.3519529 C192.864449,35.3529783 192.866647,35.3542966 192.868844,35.355322 C193.120503,35.4748526 193.327337,35.6891581 193.430169,35.9717249 L194.933383,40.1010972 C194.998276,40.2793677 195.014242,40.4636441 194.987875,40.6388384 C194.98685,40.6460161 194.984799,40.6530473 194.983627,40.6603715 C194.97894,40.6879104 194.973959,40.7154493 194.967221,40.7425488 C194.96268,40.7608593 194.956381,40.7787303 194.950815,40.7967477 C194.946128,40.812275 194.942173,40.8280952 194.936753,40.843476 C194.928696,40.8657415 194.919175,40.8874211 194.9098,40.9091006 C194.905405,40.9196475 194.901597,40.9306337 194.896763,40.9410341 C194.884311,40.9675476 194.870396,40.9931822 194.855894,41.0186704 C194.852964,41.0237973 194.85062,41.0292172 194.847691,41.0341976 C194.831431,41.061883 194.81356,41.088543 194.794957,41.1147636 C194.793199,41.1174003 194.791734,41.1201835 194.78983,41.1226737 C194.772691,41.1462576 194.754088,41.168816 194.735045,41.1910815 C194.730943,41.195769 194.727574,41.2008959 194.723473,41.2054369 C194.703111,41.2282884 194.681432,41.2498215 194.659313,41.2712081 Z M163.858209,54.2997511 C164.643801,52.6153364 164.726271,50.7258446 164.090532,48.9796138 C163.093565,46.2397848 160.465649,44.3990721 157.551798,44.3990721 C156.742037,44.3990721 155.94165,44.5410147 155.172758,44.8209448 C151.567504,46.1332912 149.702182,50.1339044 151.014382,53.7388655 C152.011349,56.4785479 154.639118,58.3192607 157.553116,58.3192607 C158.362731,58.3192607 159.163264,58.1773181 159.932156,57.897388 C161.678534,57.2617957 163.072911,55.9840194 163.858209,54.2997511 Z M157.552237,48.062773 C158.932552,48.062773 160.177223,48.9344968 160.64934,50.2320484 C161.27087,51.9396076 160.387281,53.8346657 158.679722,54.4563421 C158.316296,54.5883238 157.937196,54.6554132 157.552823,54.6554132 C156.172509,54.6554132 154.927837,53.7838359 154.455574,52.4864308 C153.834191,50.7787252 154.71778,48.883667 156.425193,48.2619907 C156.788765,48.1298625 157.167864,48.062773 157.552237,48.062773 Z M166.155218,48.228153 C166.281927,48.576198 166.384172,48.9286375 166.467668,49.2837137 L192.492674,39.8198487 L191.741067,37.7551626 L165.7165,47.2187346 C165.881441,47.5436352 166.028657,47.8802545 166.155218,48.228153 Z M137.732862,0.11737724 L153.411586,43.1960024 C153.735608,43.0319408 154.071055,42.8832599 154.420711,42.7559657 C154.767731,42.6295504 155.120024,42.5262794 155.475833,42.4430768 L139.797109,-0.634230035 C139.175579,-2.34208215 137.280814,-3.22567114 135.572815,-2.60414129 C135.571936,-2.60384832 135.571204,-2.60370184 135.570471,-2.60340887 C135.570178,-2.60340887 135.570032,-2.60326239 135.569739,-2.6031159 L122.506919,2.10838213 L123.258526,4.17336123 L136.322957,-0.538722738 C136.323397,-0.538869221 136.323836,-0.539162188 136.324276,-0.539308672 C136.324862,-0.539455156 136.325448,-0.539601639 136.325887,-0.539748123 L136.327352,-0.540334057 C136.338192,-0.54414263 136.349178,-0.546779335 136.360018,-0.550294941 C136.38448,-0.558058571 136.408943,-0.566408135 136.433552,-0.572560446 C136.455232,-0.577980338 136.477058,-0.581642428 136.498738,-0.585597485 C136.512947,-0.588380673 136.527009,-0.591896279 136.541218,-0.594093533 C136.570808,-0.59848804 136.600397,-0.600831778 136.629987,-0.602736064 C136.636286,-0.603175515 136.642585,-0.604347384 136.648883,-0.604640351 C136.683307,-0.60625167 136.717438,-0.606105187 136.751422,-0.604493867 C136.753033,-0.604347384 136.754498,-0.604493867 136.756109,-0.604493867 C136.93189,-0.595265401 137.101811,-0.543849663 137.25181,-0.45669193 C137.253861,-0.455666545 137.256058,-0.45464116 137.258109,-0.453469291 C137.285062,-0.43750258 137.311136,-0.420217517 137.336624,-0.402053553 C137.339846,-0.399563332 137.343362,-0.397805529 137.346585,-0.395461791 C137.36929,-0.37905563 137.390969,-0.361038149 137.412356,-0.342727701 C137.417922,-0.338040226 137.423928,-0.333792202 137.429494,-0.328958244 C137.44883,-0.311819664 137.466848,-0.293362732 137.485012,-0.274905801 C137.491896,-0.267874589 137.499367,-0.261429311 137.505959,-0.254251615 C137.522511,-0.236527101 137.537599,-0.217630719 137.552834,-0.198734336 C137.560158,-0.189505871 137.568214,-0.181156306 137.575246,-0.171781357 C137.588868,-0.154056843 137.60088,-0.135013977 137.613331,-0.116264078 C137.621095,-0.104691875 137.629444,-0.0938520895 137.636769,-0.0819869191 C137.647315,-0.0647018561 137.656544,-0.0462449243 137.666212,-0.0282274434 C137.673975,-0.0137255684 137.682471,4.38885637e-05 137.689649,0.0151316978 C137.697559,0.031684343 137.704005,0.0491158896 137.711182,0.0659615019 C137.71836,0.0832465649 137.726417,0.0997992101 137.732862,0.11737724 Z M156.387839,25.6731965 L163.083311,44.0703629 C163.578426,44.4458003 164.034575,44.8726535 164.446194,45.3427193 L186.365852,37.3715221 L179.099533,17.4075672 L171.528236,20.1632164 L173.156255,24.6356532 C173.364262,25.2054744 173.06983,25.8366722 172.500008,26.043214 L166.993983,28.0471095 C166.872402,28.091201 166.746426,28.1144919 166.618985,28.1144919 C166.157562,28.1144919 165.743014,27.8231361 165.586276,27.3910095 L163.957965,22.9182797 L156.387839,25.6731965 Z M164.203032,6.4617278 L162.951476,3.02082838 L159.509405,4.27340952 L160.761839,7.71416245 L164.203032,6.4617278 Z M167.274499,25.6077183 L170.716717,24.3551372 L169.464136,20.9145307 L166.022358,22.1669654 L167.274499,25.6077183 Z M157.928261,52.3915094 C158.497496,52.1842352 158.791928,51.5525979 158.584654,50.9835092 C158.427184,50.5506502 158.012196,50.2601733 157.552091,50.2601733 C157.424797,50.2601733 157.298381,50.2825853 157.176653,50.3269698 C156.607565,50.5339511 156.312986,51.1657348 156.520114,51.73497 C156.677584,52.1676825 157.092572,52.458306 157.552823,52.458306 C157.680118,52.458306 157.806533,52.435894 157.928261,52.3915094 Z" id="Combined-Shape"></path>
                </g>
            </g>
        </g>
    </g>
</svg>