<?xml version="1.0" encoding="UTF-8"?>
<svg width="75px" height="50px" viewBox="0 0 75 50" version="1.1" xmlns="http://www.w3.org/2000/svg" xmlns:xlink="http://www.w3.org/1999/xlink">
    <!-- Generator: Sketch 53.2 (72643) - https://sketchapp.com -->
    <title>gym-equipment-score-boards</title>
    <desc>Created with Sketch.</desc>
    <g id="design" stroke="none" stroke-width="1" fill="none" fill-rule="evenodd">
        <g id="catalogue-v2" transform="translate(-120.000000, -1360.000000)" fill="#FFFFFF" fill-rule="nonzero">
            <g id="title---sports-copy" transform="translate(0.000000, 1360.000000)">
                <g id="gym-equipment-score-boards" transform="translate(120.000000, -8.000000)">
                    <path d="M0,67 L75,67 L75,0 L0,0 L0,67 Z M2,2 L72.9851074,2 L72.9851074,62 L2,62 L2,2 Z" id="Shape"></path>
                    <polygon id="Path" points="7.5 13.5 11.25 13.5 11.25 11 4.99999999 11 4.99999999 18.5 7.5 18.5"></polygon>
                    <rect id="Rectangle" x="4.99999999" y="21" width="2.5" height="2.5"></rect>
                    <polygon id="Path" points="17.5 39.75 20 39.75 20 38.5 22.5 38.5 22.5 40.2275 17.5 42.7275 17.5 48.4999999 25 48.4999999 25 46.0000001 20 46.0000001 20 44.2725 25 41.7725 25 36 17.5 36"></polygon>
                    <polygon id="Path" points="48.75 39.75 51.2500001 39.75 51.2500001 38.5 53.7499999 38.5 53.7499999 40.2275 48.75 42.7275 48.75 48.4999999 56.25 48.4999999 56.25 46.0000001 51.2500001 46.0000001 51.2500001 44.2725 56.25 41.7725 56.25 36 48.75 36"></polygon>
                    <path d="M64.9999999,23.5 L43.7500001,23.5 L43.7500001,31 L41.25,31 L41.25,21 L52.5,21 L52.5,11 L22.5,11 L22.5,21 L33.75,21 L33.75,31 L31.25,31 L31.25,23.5 L10,23.5 L10,31 L4.99999999,31 L4.99999999,53.5000001 L70.0000001,53.5000001 L70.0000001,31 L64.9999999,31 L64.9999999,23.5 Z M46.2499999,26 L62.5000001,26 L62.5000001,31 L46.2499999,31 L46.2499999,26 Z M25,18.5 L25,13.5 L49.9999999,13.5 L49.9999999,18.5 L25,18.5 Z M12.5,26 L28.75,26 L28.75,31 L12.5,31 L12.5,26 Z M36.25,51 L7.5,51 L7.5,33.5 L36.25,33.5 L36.25,51 Z M36.25,31 L36.25,21 L38.7499999,21 L38.7499999,31 L36.25,31 Z M67.5,33.5 L67.5,51 L38.7499999,51 L38.7499999,33.5 L67.5,33.5 Z" id="Shape"></path>
                    <rect id="Rectangle" x="67.5" y="11" width="2.5" height="2.5"></rect>
                    <rect id="Rectangle" x="62.5000001" y="11" width="2.5" height="2.5"></rect>
                </g>
            </g>
        </g>
    </g>
</svg>