<?xml version="1.0" encoding="UTF-8"?>
<svg width="71px" height="50px" viewBox="0 0 71 50" version="1.1" xmlns="http://www.w3.org/2000/svg" xmlns:xlink="http://www.w3.org/1999/xlink">
    <!-- Generator: Sketch 53.2 (72643) - https://sketchapp.com -->
    <title>Group 3</title>
    <desc>Created with Sketch.</desc>
    <g id="design" stroke="none" stroke-width="1" fill="none" fill-rule="evenodd">
        <g id="catalogue-v2" transform="translate(-122.000000, -1360.000000)" fill="#FFFFFF">
            <g id="title---sports-copy" transform="translate(0.000000, 1360.000000)">
                <g id="Group-3" transform="translate(120.000000, -6.000000)">
                    <path d="M69.4419523,54.4320788 L69.3881965,54.9988405 C69.5076822,55.1595998 69.8211729,55.5844185 69.8211729,55.5844185 C69.9509767,55.759953 70.0127577,55.9765298 69.9953061,56.1936116 L69.7698374,58.9742548 C69.6658925,60.264749 68.5209699,61.3149251 67.2177096,61.3149251 L59.5577596,61.3149251 C58.2152652,61.3149251 57.1225698,60.2321678 57.1225698,58.9017679 L57.1225698,52.8934369 C57.1225698,52.7405072 57.6908275,51.6340085 57.7873841,51.4589791 C57.790314,51.445593 57.7943902,51.4328384 57.7978296,51.4199574 C57.6769427,48.175095 57.5783479,45.6468932 57.4793709,43.2549516 C57.3922406,41.1441178 57.3026901,39.0327788 57.2126299,36.921945 L57.1410404,35.2269637 C56.9837219,35.209284 56.8236008,35.199939 56.6623334,35.199939 C56.5005564,35.199939 56.3409449,35.209284 56.1831168,35.2269637 L56.1010818,37.1597374 C56.0149706,39.1916438 55.9283498,41.2230452 55.8447863,43.2549516 C55.7468284,45.6350225 55.6453038,48.2362164 55.5263276,51.4204626 C55.529767,51.4332172 55.5338432,51.445593 55.536773,51.458474 C55.6398263,51.6458792 56.2015874,52.7405072 56.2015874,52.8934369 L56.2015874,58.9017679 C56.2015874,60.2321678 55.108892,61.3145463 53.7663976,61.3145463 L46.1069571,61.3145463 C44.8036968,61.3145463 43.6582647,60.264749 43.5543198,58.9742548 L43.3293606,56.1936116 C43.3119091,55.9765298 43.7906161,55.1942016 43.9354511,54.9988405 L43.8822048,54.4370039 C43.4622216,50.0012851 43.0278439,45.4140259 42.867086,40.8840994 C42.711296,36.4799516 42.8944734,31.7276394 43.4269363,26.3555263 C43.4283376,26.3422665 43.4298662,26.3293855 43.4319043,26.3161257 C43.5687141,25.3674818 44.2807877,24.5520672 45.1754018,24.205797 L45.1754018,20.9614397 C45.1754018,20.459209 45.5859587,20.0521963 46.0924354,20.0521963 L67.2317218,20.0521963 C67.7381985,20.0521963 68.1487554,20.459209 68.1487554,20.9614397 L68.1487554,24.205797 C69.0433695,24.5520672 69.7554431,25.3674818 69.8917434,26.3161257 C69.8937815,26.3293855 69.8958196,26.3427716 69.8968387,26.3555263 C70.4296838,31.7266292 70.6128612,36.4790677 70.4565617,40.8840994 C70.2963133,45.4126367 69.8619356,49.9977492 69.4419523,54.4320788 Z M67.7190479,55.969628 C67.6644265,55.894877 67.0725261,55.5939947 66.9157097,55.3783811 L65.0436031,52.800284 C64.7506106,52.3967286 64.8419819,51.8327777 65.2476155,51.5412862 C65.6532491,51.2502955 66.2199782,51.3408231 66.5130966,51.7442534 L67.2991926,52.8277053 C67.679655,48.7812573 68.0533212,44.6238723 68.1973004,40.5364803 C68.3488309,36.2562632 68.1707448,31.630839 67.6541063,26.3958871 C67.5921852,26.0310219 67.1860482,25.690072 66.807977,25.690072 L62.9502418,25.690072 C62.4497129,25.690072 62.0442052,25.2866417 62.0442052,24.7886771 C62.0442052,24.2907125 62.4497129,23.8872822 62.9502418,23.8872822 L65.9161621,23.8872822 L65.9161621,21.7479249 L46.8426998,21.7479249 L46.8426998,23.8872822 L49.80862,23.8872822 C50.3091489,23.8872822 50.7146567,24.2907125 50.7146567,24.7886771 C50.7146567,25.2866417 50.3091489,25.690072 49.80862,25.690072 L45.9508848,25.690072 C45.5728137,25.690072 45.1661732,26.030521 45.1042521,26.3953863 C44.5881171,31.6312147 44.4101568,36.2572649 44.5610581,40.5364803 C44.7055406,44.6238723 45.0792068,48.7807565 45.4591658,52.8272044 L46.2457652,51.7442534 C46.5388836,51.3403223 47.1057386,51.2497947 47.5112463,51.5412862 C47.9168799,51.8327777 48.0082513,52.3962277 47.7152587,52.800284 L45.8431522,55.3783811 C45.6863357,55.5939947 45.0944354,55.894877 45.0398139,55.9691272 L45.2350164,58.3927137 C45.2635857,58.7448074 45.597859,59.0539537 45.9508848,59.0539537 L53.5184745,59.0539537 C53.8404139,59.0539537 54.1117592,58.7839985 54.1117592,58.4645849 L54.1117592,57.3871432 L48.2560616,57.3871432 C47.7556585,57.3871432 47.3500249,56.9835877 47.3500249,56.4856231 C47.3500249,55.9877836 47.7556585,55.5842282 48.2560616,55.5842282 L54.1117592,55.5842282 L54.1117592,52.7386801 L53.9850223,52.5077908 C53.8390295,52.2432197 51.7761254,49.2292627 51.7761254,49.2292627 C51.4831328,48.8258325 51.5745042,48.2623824 51.9801378,47.9708909 C52.3857714,47.6792742 52.9526264,47.7698018 53.2456189,48.1733573 L53.5365977,48.5749094 C53.616768,46.463349 53.6900161,44.6107252 53.7612505,42.8768015 C53.8439379,40.8621545 53.929394,38.8470066 54.0144726,36.831984 L54.0606617,35.7372631 C53.8984335,35.8585927 53.7077618,35.9183184 53.5179711,35.9183184 C53.2568201,35.9183184 52.9978086,35.8067553 52.8188415,35.5910165 C52.4997968,35.2071192 52.5542924,34.6387859 52.9402925,34.3218766 C53.8512375,33.5729888 55.0729208,33.1606686 56.3796826,33.1606686 C57.6864445,33.1606686 58.9081278,33.5729888 59.8185694,34.3218766 C60.2045694,34.6387859 60.259065,35.2071192 59.9400203,35.5910165 C59.6302889,35.9642709 59.0826899,36.0243722 58.6982001,35.7367623 L58.7345725,36.5957106 C58.8230492,38.6891154 58.9120293,40.7828958 58.9976113,42.8768015 C59.0698526,44.6258757 59.1415905,46.4492001 59.2222641,48.5744085 L59.5132429,48.1733573 C59.8063613,47.7698018 60.3730905,47.6787734 60.7787241,47.9703901 C61.1843576,48.2623824 61.275729,48.8258325 60.9827365,49.2292627 C60.9827365,49.2292627 58.9331731,52.21968 58.7935989,52.4721057 L58.6465992,52.7381793 L58.6465992,55.5842282 L64.5028003,55.5842282 C65.0033292,55.5842282 65.4088369,55.9877836 65.4088369,56.4856231 C65.4088369,56.9835877 65.0033292,57.3871432 64.5028003,57.3871432 L58.6465992,57.3871432 L58.6465992,58.4645849 C58.6465992,58.7839985 58.9184479,59.0539537 59.2403873,59.0539537 L66.807977,59.0539537 C67.1610028,59.0539537 67.4952761,58.7448074 67.523342,58.3927137 L67.7190479,55.969628 Z M60.1430722,30.6807253 C60.3152115,31.1420647 60.0789856,31.6550216 59.6160972,31.8262135 C59.5137575,31.8644625 59.408437,31.8822872 59.3047311,31.8822872 C58.9418226,31.8822872 58.6002763,31.6603442 58.4663901,31.301621 L56.8075926,26.8531062 L55.1494162,31.301621 C55.0154058,31.6603442 54.6738595,31.8822872 54.3110752,31.8822872 C54.2072451,31.8822872 54.1019246,31.8644625 53.9995849,31.8262135 C53.5366964,31.6550216 53.3004706,31.1420647 53.4727341,30.6807253 L55.5215154,25.1858725 L55.0421085,25.1858725 C54.5482946,25.1858725 54.1480023,24.7870435 54.1480023,24.2947584 C54.1480023,23.802597 54.5482946,23.4036443 55.0421085,23.4036443 L58.5735736,23.4036443 C59.0673875,23.4036443 59.4676798,23.802597 59.4676798,24.2947584 C59.4676798,24.7870435 59.0673875,25.1858725 58.5735736,25.1858725 L58.0941667,25.1858725 L60.1430722,30.6807253 Z" id="009-sweat-pants" transform="translate(56.661960, 40.683561) rotate(13.000000) translate(-56.661960, -40.683561) "></path>
                    <path d="M42.8965699,28.1396035 C43.3290386,28.1396035 43.6791265,28.4880374 43.6791265,28.9179811 L43.6791265,43.8346582 C43.6791265,44.1859816 43.4423877,44.4940819 43.1017355,44.5858257 L37.9736855,45.970772 L37.9736855,51.3671624 C37.9736855,51.7969857 37.6234766,52.14554 37.1911289,52.14554 L10.0980261,52.14554 C9.6661623,52.14554 9.31559051,51.7969857 9.31559051,51.3671624 L9.31559051,45.970772 L4.18802438,44.5861869 C3.84737214,44.4940819 3.61063336,44.1864632 3.61063336,43.8346582 L3.61063336,15.7602087 C3.61063336,12.5766262 6.87017684,10.3995768 9.5783379,9.14056758 C11.4774499,3.87083669 15.0890168,2.89440319 15.2449475,2.85491242 C15.2595849,2.85069846 15.2747062,2.84925368 15.2898274,2.84648451 C15.3044648,2.84359494 15.3192232,2.83986258 15.3338606,2.8379362 C15.360716,2.83468544 15.3872085,2.83324065 15.413701,2.83239786 C15.4221689,2.83191627 15.4302739,2.83047148 15.4387418,2.83047148 L31.9422296,2.83047148 C31.9516653,2.83047148 31.9606171,2.83239786 31.9700528,2.83287946 C31.9955775,2.83324065 32.0211022,2.83468544 32.0466269,2.8384178 C32.0612643,2.84034418 32.0759017,2.84359494 32.0905391,2.84648451 C32.1056604,2.84925368 32.1207817,2.85069846 32.135903,2.85491242 C32.2928014,2.89440319 35.9285624,3.87637503 37.8224727,9.19282061 C40.5074074,10.4597762 43.6791265,12.6203309 43.6791265,15.7602087 L43.6791265,26.2710156 C43.6791265,26.701441 43.3290386,27.0498748 42.8965699,27.0498748 C42.4642223,27.0498748 42.1141343,26.701441 42.1141343,26.2710156 L42.1141343,15.7602087 C42.1141343,13.4556571 39.3978683,11.6275232 36.9067278,10.4846987 C36.8934211,10.4800032 36.8807192,10.4757892 36.8678964,10.4701305 C35.6365402,9.91376805 34.5349851,9.5563043 34.0341682,9.40484273 L29.4727429,11.7530991 L29.4727429,24.2670996 C29.4727429,24.696923 29.1220501,25.0454772 28.6901863,25.0454772 C28.2583225,25.0454772 27.9076297,24.696923 27.9076297,24.2670996 L27.9076297,12.5588072 L24.0040406,14.568382 C23.7785521,14.6845667 23.510603,14.6845667 23.2852354,14.568382 L19.6107639,12.6767979 L19.6107639,24.2670996 C19.6107639,24.6974046 19.2601921,25.0454772 18.8282074,25.0454772 C18.3963436,25.0454772 18.0457718,24.6974046 18.0457718,24.2670996 L18.0457718,11.8712102 L13.2551078,9.40484273 C12.7689283,9.55209035 11.7146726,9.89402267 10.5261398,10.4235362 C10.5129541,10.4291949 10.4988006,10.4330477 10.4856148,10.4381044 C7.96689315,11.5776781 5.17514165,13.4236311 5.17514165,15.7602087 L5.17514165,38.8334164 L9.31559051,39.9518 L9.31559051,20.5004261 C9.31559051,20.0704824 9.66567842,19.7220485 10.0980261,19.7220485 C10.5300109,19.7220485 10.8800988,20.0704824 10.8800988,20.5004261 L10.8800988,47.2274937 L14.8257856,47.2274937 C15.2577703,47.2274937 15.6078582,47.576048 15.6078582,48.0063529 C15.6078582,48.4361763 15.2577703,48.7850917 14.8257856,48.7850917 L10.8800988,48.7850917 L10.8800988,50.5883031 L36.4090562,50.5883031 L36.4090562,48.7847305 L17.3812822,48.7847305 C16.9494183,48.7847305 16.5988466,48.4361763 16.5988466,48.0063529 C16.5988466,47.576048 16.9489345,47.2274937 17.3812822,47.2274937 L36.4090562,47.2274937 L36.4090562,20.5004261 C36.4090562,20.0704824 36.7592651,19.7220485 37.1911289,19.7220485 C37.6234766,19.7220485 37.9736855,20.0704824 37.9736855,20.5004261 L37.9736855,39.9513184 L42.1141343,38.8334164 L42.1141343,28.9179811 C42.1141343,28.4880374 42.4647061,28.1396035 42.8965699,28.1396035 Z M28.9929923,31.8503998 C28.9929923,34.2308887 30.3277199,36.401997 32.4757046,37.5168359 C32.7314861,37.649744 32.8914553,37.9104619 32.8914553,38.1947737 L32.8914553,44.1867812 C32.8914553,44.6106406 32.5417946,44.9537592 32.110337,44.9537592 L14.6660867,44.9537592 C14.2342666,44.9537592 13.884606,44.6106406 13.884606,44.1867812 L13.884606,38.1942995 C13.884606,37.9104619 14.0445751,37.649744 14.3008399,37.5168359 C16.4482205,36.401997 17.7829481,34.2308887 17.7829481,31.8503998 C17.7829481,31.4270147 18.1327296,31.0838961 18.5640664,31.0838961 L28.2119949,31.0838961 C28.6433317,31.0838961 28.9929923,31.4270147 28.9929923,31.8503998 Z M23.6902438,10.9705075 L26.6289741,7.95018559 L20.7519973,7.95018559 L23.6902438,10.9705075 Z M32.1492097,4.51557175 L30.8089803,5.89305332 L24.2525135,12.6316484 L24.1433983,12.7436192 L27.9081136,10.8054409 L27.9081136,10.2862816 C27.9081136,9.85597668 28.2583225,9.50742243 28.6901863,9.50742243 C29.0298708,9.50742243 29.317659,9.72281571 29.4264113,10.0238125 L33.5927478,7.87878915 C33.7231537,7.81148628 33.868197,7.78283139 34.0128774,7.79366727 C34.0605397,7.79739963 34.1088069,7.80534594 34.1559853,7.81810821 C34.1588885,7.8190714 34.1655419,7.82087738 34.1744937,7.82328535 C34.3143353,7.86133134 34.921606,8.03157511 35.7679139,8.3391938 C34.5232509,5.83104799 32.892451,4.85040054 32.1492097,4.51557175 Z M30.0954977,4.38770832 L17.2853527,4.38770832 L19.236482,6.39306914 L28.1438846,6.39306914 L30.0954977,4.38770832 Z M15.2312778,4.51509015 C14.4898512,4.84763137 12.8756241,5.81599815 11.6338644,8.29873984 C12.4635994,8.00099384 13.0419582,7.84303074 13.1336536,7.81810821 C13.1638962,7.81004149 13.1936549,7.80438276 13.2243813,7.8001688 C13.2324863,7.79932601 13.2404704,7.79836282 13.2489383,7.79739963 C13.2734953,7.79451006 13.2985361,7.79270408 13.3235769,7.79222249 C13.3284158,7.79222249 13.3326497,7.7912593 13.3373676,7.7912593 C13.3386982,7.7912593 13.3406338,7.79174089 13.3425693,7.79174089 C13.3703924,7.79174089 13.3983366,7.79366727 13.4256758,7.79643644 C13.4323292,7.79739963 13.4384987,7.79884441 13.4445472,7.79968721 C13.4663218,7.80257677 13.4880965,7.80630913 13.5093873,7.81100468 C13.5183391,7.81341266 13.5272909,7.81570023 13.5362426,7.81810821 C13.5555979,7.82328535 13.5750741,7.82894409 13.5939455,7.83544562 C13.6019295,7.83833519 13.6105184,7.84110436 13.6185024,7.84399393 C13.6449949,7.85434822 13.6710035,7.8655453 13.6964073,7.87878915 L18.0627076,10.1263922 C18.1364994,9.77266077 18.4511431,9.50742243 18.8282074,9.50742243 C19.260676,9.50742243 19.6107639,9.85597668 19.6107639,10.2858001 L19.6107639,10.923552 L22.3590871,12.3387184 L22.4223546,12.2733419 L22.6010276,12.0898542 L15.2312778,4.51509015 Z M9.31559051,44.3571886 L9.31559051,41.5655038 L5.17514165,40.4471203 L5.17514165,43.2392866 L9.31559051,44.3571886 Z M42.1141343,43.2392866 L42.1141343,40.4471203 L37.9736855,41.5655038 L37.9736855,44.3571886 L42.1141343,43.2392866 Z M31.3287354,43.4202776 L31.3292187,43.4202776 L31.3292187,38.6412784 C29.1355631,37.3370959 27.7121517,35.1070622 27.46809,32.6172591 L19.3083337,32.6172591 C19.0643929,35.106588 17.6403774,37.3370959 15.447205,38.6408042 L15.447205,43.4202776 L31.3287354,43.4202776 Z" id="Fill-1" transform="translate(23.644880, 27.488006) rotate(-9.000000) translate(-23.644880, -27.488006) "></path>
                </g>
            </g>
        </g>
    </g>
</svg>