<?xml version="1.0" encoding="UTF-8"?>
<svg width="67px" height="50px" viewBox="0 0 67 50" version="1.1" xmlns="http://www.w3.org/2000/svg" xmlns:xlink="http://www.w3.org/1999/xlink">
    <!-- Generator: Sketch 53.2 (72643) - https://sketchapp.com -->
    <title>014-pen</title>
    <desc>Created with Sketch.</desc>
    <g id="design" stroke="none" stroke-width="1" fill="none" fill-rule="evenodd">
        <g id="catalogue-v2" transform="translate(-123.000000, -1360.000000)" fill="#FFFFFF" fill-rule="nonzero">
            <g id="title---sports-copy" transform="translate(0.000000, 1360.000000)">
                <g id="014-pen" transform="translate(120.000000, -12.000000)">
                    <path d="M4.30641182,11.416626 L4.29382324,11.4303589 C3.31764229,12.4065398 3.31764229,13.9886856 4.29382324,14.9648666 L11.4286422,22.1002579 C11.89785,22.5694657 12.5341415,22.8326798 13.1973267,22.8315353 C13.4164811,22.82753 13.634491,22.7949142 13.8450623,22.7348328 L41.0488128,49.9385833 C40.9887313,50.1502991 40.9566879,50.3688812 40.9538269,50.5886077 C40.9521103,51.252365 41.2158967,51.8886565 41.6862488,52.3561478 L57.7165604,68.3864593 C58.1840515,68.8568115 58.820343,69.1205978 59.4841003,69.1188812 C59.8056794,69.1188812 60.1243973,69.0570832 60.4225159,68.936348 L71.3075638,74.6990203 C72.2808838,75.2145768 73.4767913,75.0349044 74.256134,74.256134 C75.0349044,73.4767913 75.2145768,72.2808838 74.6990203,71.3075638 L68.936348,60.4225159 C69.0570832,60.1243973 69.1188812,59.8056794 69.1188812,59.4841003 C69.1205978,58.820343 68.8568115,58.1840515 68.3864593,57.7165604 L52.3601531,41.6902542 C51.7227173,41.0779953 50.8123397,40.8411026 49.9574662,41.0648347 L22.7348328,13.8450623 C22.9717254,12.9838944 22.7291106,12.0626449 22.1002579,11.4286422 L17.6376343,6.96659092 L19.4349289,5.17730713 L40.8027649,26.5525818 L39.9112702,27.44236 C39.4231796,27.9304504 39.4226074,28.7223816 39.9106979,29.2104721 C40.3987884,29.6991349 41.1901474,29.699707 41.6788102,29.2116166 L42.5703048,28.3201217 C43.5476303,27.3393631 43.5476303,25.7520675 42.5703048,24.7713089 L21.2024689,3.41033936 C20.2222824,2.43244175 18.6355591,2.43244175 17.6553727,3.41033936 L15.8678055,5.19733433 L14.9637223,4.29382324 C13.9875412,3.31764229 12.4048233,3.31764229 11.4286422,4.29382324 L11.416626,4.30641182 L7.84263604,0.732421875 C7.37400059,0.263786279 6.73770908,1.13686838e-13 6.07452393,1.13686838e-13 C5.41133877,1.13686838e-13 4.77504727,0.263786279 4.30641182,0.732421875 L0.732421875,4.30641182 C0.263786279,4.77504727 -2.84217094e-14,5.41133877 -2.84217094e-14,6.07452393 C-2.84217094e-14,6.73770908 0.263786279,7.37400059 0.732421875,7.84263604 L4.30641182,11.416626 Z M42.5765991,47.9312897 L15.8552169,21.2099076 L21.2099076,15.8552169 L47.9312897,42.5765991 L42.5765991,47.9312897 Z M62.4624252,67.1911239 L67.1899796,62.4635697 L72.4851608,72.502327 L62.4624252,67.1911239 Z M52.3773193,45.2528 L51.4812469,46.1488724 C51.1493684,46.4618684 51.0143279,46.9305038 51.1293412,47.3716736 C51.2437821,47.8134155 51.5893937,48.1573104 52.0311356,48.2694625 C52.4734497,48.3821868 52.941513,48.2448577 53.2527923,47.9112625 L54.1488647,47.0140458 L55.9427262,48.8073349 L55.0449372,49.7051238 C54.719925,50.0186921 54.5900345,50.4838944 54.7044754,50.9204865 C54.818344,51.3576507 55.1599503,51.6992569 55.5971146,51.8136979 C56.0342789,51.9281388 56.498909,51.7976761 56.8124771,51.4726639 L57.7102661,50.5748748 L59.5024109,52.3687362 L58.6051941,53.2665252 C58.1171036,53.7557602 58.1182479,54.5482635 58.6074829,55.0363541 C59.09729,55.5244446 59.8897934,55.5233001 60.3773117,55.0340653 L61.2751008,54.1362762 L63.0689621,55.9301376 L62.1711731,56.8262101 C61.8553162,57.142067 61.73172,57.6021195 61.8473054,58.034134 C61.9628906,58.4655762 62.2999191,58.8026046 62.7307893,58.91819 C63.1622314,59.0337753 63.6228561,58.9107513 63.938713,58.5948943 L64.8365021,57.6976775 L66.6275024,59.4898225 L59.491539,66.6275024 L57.6976775,64.833641 L58.5948943,63.9375687 C59.082985,63.4489059 59.082985,62.6575471 58.5943222,62.1694564 C58.1062317,61.681366 57.3143005,61.6819381 56.8262101,62.1700286 L55.9301376,63.0661011 L54.1374207,61.2739563 L55.0340653,60.3761673 C55.5072785,59.8857879 55.5009842,59.1064453 55.0186157,58.6240768 C54.5362472,58.1417083 53.7569046,58.134842 53.2665252,58.6086272 L52.3698807,59.5064164 L50.5748748,57.7125549 L51.4726639,56.8153381 C51.9464493,56.3243865 51.9395829,55.5450439 51.4572144,55.0626754 C50.9754182,54.5808792 50.1955033,54.5740128 49.7051238,55.0477982 L48.8073349,55.9438705 L47.0151901,54.1500091 L47.9112625,53.2539368 C48.3850479,52.7635575 48.3781815,51.9836426 47.8963852,51.5018464 C47.4140168,51.0194779 46.6341019,51.0126114 46.1437225,51.4863968 L45.2528,52.3773193 L43.4589387,50.5840301 L50.5840301,43.4589387 L52.3773193,45.2528 Z M13.1973267,6.06136318 L14.9814606,7.844925 L20.3287125,13.189888 L20.3287125,13.1961823 L13.1961823,20.3287125 L6.06136318,13.1961823 L13.1973267,6.06136318 Z M6.07395176,2.50282295 L9.64908604,6.07509609 L6.07395176,9.65023037 L2.50282295,6.07395176 L6.07395176,2.50282295 Z" id="Shape"></path>
                </g>
            </g>
        </g>
    </g>
</svg>